PathFileType	4	(X/Y/Z)	/Users/visionmauri/Downloads/Videos/OAW11-top_Sports2D/OAW11-top_Sports2D_m_person00.trc
DataRate	CameraRate	NumFrames	NumMarkers	Units	OrigDataRate	OrigDataStartFrame	OrigNumFrames
30.0	30.0	9	22	m	30.0	1353	2166
Frame#	Time	Hip			RHip			RKnee			RAnkle			RBigToe			RSmallToe			RHeel			LHip			LKnee			LAnkle			LBigToe			LSmallToe			LHeel			Neck			Head			Nose			RShoulder			RElbow			RWrist			LShoulder			LElbow			LWrist			
		X1	Y1	Z1	X2	Y2	Z2	X3	Y3	Z3	X4	Y4	Z4	X5	Y5	Z5	X6	Y6	Z6	X7	Y7	Z7	X8	Y8	Z8	X9	Y9	Z9	X10	Y10	Z10	X11	Y11	Z11	X12	Y12	Z12	X13	Y13	Z13	X14	Y14	Z14	X15	Y15	Z15	X16	Y16	Z16	X17	Y17	Z17	X18	Y18	Z18	X19	Y19	Z19	X20	Y20	Z20	X21	Y21	Z21	X22	Y22	Z22
1353	45.120831408775985	1.34998340748418	0.46368187005177947	0.0301	1.2921330440746064	0.42853636425433284	0.0301	1.4093576636953504	0.2431788893604682	0.129	1.5187025089744792	0.07177822589064262	0.023	1.5464956602357338	-0.011523570396332039	0.2179	1.5184340470835092	-0.01982411916570244	0.1804	1.5492531244716785	0.0499298308943021	-0.0119	1.407306212299797	0.48787233978073213	0.0301	1.5093760868936128	0.29768083527521455	0.129	1.5923565826184576	0.13595628755776829	0.023	1.6375562187417334	0.0705671356058135	0.2179	1.6631625001879164	0.09084451079323642	0.1804	1.600219847984307	0.10023993002114294	-0.0119	1.2095618279167173	0.7158246214286983	0.0008	1.1661136290344933	0.784800863283913	0.0655	1.2238634988039747	0.6945986446543523	0.1076	1.1272949556126988	0.6533342114945768	-0.01275	1.174571600752237	0.4878456362534071	0.0702	1.2103679779731953	0.35268760632838364	0.1076	1.30194411697751	0.7630276686899465	-0.01275	1.4376895105913976	0.6485606214038832	0.0702	1.5241608894138232	0.5343662632544957	0.1076
1354	45.15418013856813	1.3520239172609358	0.4584378724835945	0.0301	1.2967257750052936	0.41950303597626554	0.0301	1.4126988802794904	0.23681059710507615	0.129	1.5195593586233926	0.05984534186716335	0.023	1.5453277153498615	-0.01779923775951091	0.2179	1.5186619966863193	-0.027691317695432118	0.1804	1.5511907616481935	0.032872179047965515	-0.0119	1.4119280568196677	0.4792855271947461	0.0301	1.510489519269315	0.2921790769287424	0.129	1.5938453686633618	0.13397058595384984	0.023	1.6385655136762347	0.06908551500642948	0.2179	1.6631620978617188	0.08926581933481655	0.1804	1.6059008223380453	0.09154335682844147	-0.0119	1.2075985596071508	0.7184525110163786	0.0008	1.1682823980702954	0.7772822944507403	0.0655	1.2232345263717814	0.6956710969621103	0.1076	1.1284927146832666	0.6501628537773487	-0.01275	1.176159848633318	0.482290689621495	0.0702	1.2092778092171872	0.3489107764835245	0.1076	1.3011589646311108	0.7602816241836493	-0.01275	1.4382584321167702	0.6460125201069618	0.0702	1.522207587170599	0.536115195335382	0.1076
1355	45.187528868360275	1.3509559221895993	0.45555500679989186	0.0301	1.2977060140449495	0.4141791295087708	0.0301	1.4118620348633353	0.233417307926237	0.129	1.5175746798133485	0.05199245424547647	0.023	1.545223415164283	-0.020204840289024854	0.2179	1.5186673601117442	-0.03205283423862795	0.1804	1.5510855029163397	0.019393885140641148	-0.0119	1.4131877262665966	0.47548543854140446	0.0301	1.5094304498574982	0.29020665330918616	0.129	1.5946737360828858	0.13249767707772625	0.023	1.6402213080847794	0.06694136660797192	0.2179	1.6636798418810328	0.0873991273601906	0.1804	1.6123352501229704	0.0828577486757933	-0.0119	1.209814296688166	0.713445697769204	0.0008	1.1656901220483422	0.7756155878373259	0.0655	1.223432810577611	0.6958943612948275	0.1076	1.1295510247069165	0.6479176612106559	-0.01275	1.176568166507618	0.47852880119636054	0.0702	1.208430421155169	0.34217157362963274	0.1076	1.299501920651963	0.7568775189568724	-0.01275	1.4380927428095496	0.6432804456934125	0.0702	1.5214390450171198	0.5347024558970895	0.1076
1356	45.22087759815243	1.34892880808932	0.4533287769862227	0.0301	1.294986648210945	0.41303351464539434	0.0301	1.4092782636410222	0.23132863942003176	0.129	1.5166035650085745	0.04469631951762331	0.023	1.5471976967605687	-0.023131861837835582	0.2179	1.5195664717087167	-0.03586192768306102	0.1804	1.5505204669765493	0.010367357332109861	-0.0119	1.411349921306963	0.4752162854519748	0.0301	1.5082086936639316	0.2896351879387929	0.129	1.5944284490877159	0.13285902504515412	0.023	1.6411711631463766	0.06484785635283802	0.2179	1.6638948259621131	0.08628119353435944	0.1804	1.6146340738125953	0.08180118866445703	-0.0119	1.2133973780926943	0.7039362316671995	0.0008	1.1595276707370434	0.778536371774859	0.0655	1.2220802440746117	0.6945885315011043	0.1076	1.1308444722529152	0.6453069471568477	-0.01275	1.1757148344876058	0.47580947123903866	0.0702	1.2079180576547606	0.3338877618712362	0.1076	1.2983817335238874	0.7521341085720756	-0.01275	1.4383106097356089	0.6406038384279378	0.0702	1.5226600150946128	0.5295611815878672	0.1076
1357	45.25422632794457	1.3489286096739332	0.44901471587258235	0.0301	1.2919847410784042	0.41249584314673315	0.0301	1.4089662168556842	0.22681661179630563	0.129	1.5200283514164858	0.03491477507596984	0.023	1.5515690384005554	-0.030704875799493308	0.2179	1.522693975989018	-0.042819957228808166	0.1804	1.5516173127484867	0.0038319217807413837	-0.0119	1.4088136614501583	0.47406680093650627	0.0301	1.5091315134177261	0.2867558891469661	0.129	1.5931493001791304	0.1351442794821718	0.023	1.6407776551982476	0.06339151536905502	0.2179	1.6632952862722876	0.08652535938524557	0.1804	1.6098487906253116	0.09203272897387005	-0.0119	1.2134837462735009	0.6970340377027422	0.0008	1.1542165204535406	0.7798820760485154	0.0655	1.218025422540581	0.6913080235632736	0.1076	1.1322575659117553	0.6401862281704797	-0.01275	1.1745804696110618	0.4712565208077782	0.0702	1.2068085523606167	0.32677035042992447	0.1076	1.2983736371389396	0.7460282343821508	-0.01275	1.439570219271395	0.6374240431487785	0.0702	1.5245924927489802	0.5229646642092122	0.1076
1358	45.287575057736724	1.3493889219410629	0.44376796997735213	0.0301	1.290463664231503	0.40955044161829773	0.0301	1.4111733569500968	0.21912536792662335	0.129	1.5261448057410896	0.023753234583512573	0.023	1.5574418895131632	-0.04265826938305017	0.2179	1.5274728619690139	-0.05359188750765066	0.1804	1.5543884216494839	-0.0019629518910501778	-0.0119	1.407112264393452	0.469993529805103	0.0301	1.5111077706540212	0.2806360031458674	0.129	1.5912827491678836	0.1382142387705867	0.023	1.63961129142784	0.06253580953597647	0.2179	1.6620360125703586	0.08831537588200186	0.1804	1.601375710445666	0.1063514415253139	-0.0119	1.2105350735521743	0.6921710248233406	0.0008	1.1512089576453026	0.7758168593312109	0.0655	1.2126762787282812	0.6858016376926723	0.1076	1.1316979892864327	0.6323041724597089	-0.01275	1.1735354926847328	0.4637987368456903	0.0702	1.2050197417682424	0.3207868080680335	0.1076	1.2981930778022024	0.7393780504261012	-0.01275	1.4409447569240552	0.6330184689984933	0.0702	1.52578484685905	0.5166291916233122	0.1076
1359	45.32092378752887	1.3474847097150342	0.43941662535640974	0.0301	1.2888869477332379	0.40476702088003075	0.0301	1.412713915739911	0.21074426767276455	0.129	1.5306057728362041	0.015466724677565422	0.023	1.5626684912673763	-0.054312124680862925	0.2179	1.5316149548596134	-0.06441798054841243	0.1804	1.556520540293196	-0.006025816185536881	-0.0119	1.4053300582881796	0.4649635409571819	0.0301	1.5116672240611377	0.273750266163025	0.129	1.5892824711846405	0.14101141690782343	0.023	1.6385306301117109	0.06150675862631313	0.2179	1.6609228450435323	0.09059268398231926	0.1804	1.5941941192180982	0.11591738363057862	-0.0119	1.2091104371462629	0.6841860501750006	0.0008	1.1481679231623547	0.7694853574001935	0.0655	1.2086505648893282	0.6789259882795596	0.1076	1.12875059539542	0.6236224223716101	-0.01275	1.171781739101726	0.4550481593774984	0.0702	1.2026967694323791	0.3131136328006371	0.1076	1.2967740538405175	0.7326012471412867	-0.01275	1.4412625382724182	0.6270126995114026	0.0702	1.5269119017461033	0.5107847611955498	0.1076
1360	45.354272517321014	1.3445577121054235	0.4343573948247568	0.0301	1.285841671754439	0.39959228072442227	0.0301	1.4112692148009651	0.2039630568347328	0.129	1.532107015091894	0.011898769074119383	0.023	1.5652890651973004	-0.06173498246549565	0.2179	1.5336054609462848	-0.0714142002548351	0.1804	1.556841528682617	-0.0076292586750899725	-0.0119	1.4025656175786958	0.46102033050926544	0.0301	1.5108055951175619	0.26882519078662465	0.129	1.5874534799292856	0.14339449905665513	0.023	1.638680453551336	0.059658789132975246	0.2179	1.6608351391143548	0.09134317699707761	0.1804	1.5894726894170992	0.12057573288766207	-0.0119	1.210397270133018	0.6727149786100666	0.0008	1.143960966300185	0.7647788743352809	0.0655	1.2077429975201701	0.6716791020922852	0.1076	1.1256254621443444	0.6165331713301819	-0.01275	1.1686515042312071	0.44672202985475834	0.0702	1.1994284859202629	0.30316920279839404	0.1076	1.2938047860034647	0.725782111104657	-0.01275	1.4399343106008298	0.6199376508274134	0.0702	1.5289923777601575	0.5052211281357243	0.1076
1361	45.38762124711317	1.3429307488783468	0.42712299037382534	0.0301	1.2819485572908678	0.3937915165222014	0.0301	1.4072856564928433	0.19945246129979002	0.129	1.5320707091349062	0.011449842889722794	0.023	1.565722495322408	-0.06453673945640175	0.2179	1.533758438666071	-0.07413490419085	0.1804	1.5563744555271672	-0.007866212034441962	-0.0119	1.39966837717886	0.45757868185133505	0.0301	1.5101584240802828	0.2665383993390516	0.129	1.5862871521111364	0.1453537995145916	0.023	1.6411614428509962	0.057244671704023725	0.2179	1.6618370881725035	0.0898154310051974	0.1804	1.5869281566513562	0.1240792821487868	-0.0119	1.2103712299867897	0.6631458990862702	0.0008	1.1401429883125058	0.7613370740839513	0.0655	1.2088828692678317	0.6654882612448615	0.1076	1.1232693634624071	0.6123493450011674	-0.01275	1.1646164708940212	0.4396018594762423	0.0702	1.1952071907736819	0.2939677236068801	0.1076	1.2892606165564202	0.7201453521127289	-0.01275	1.436223277491743	0.6132220740222815	0.0702	1.5307879678439418	0.500501557603794	0.1076
